# xmcd
#
# Track frame offsets: 
#        150
#        42560
#        98680
#
# Disc length: 1946 seconds
#
# Revision: 1
# Processed by: cddbd v1.5.2PL0 Copyright (c) Steve Scherf et al.
# Submitted via: ExactAudioCopy v0.99pb4
#
DISCID=1e079803
DTITLE=Splinter Test - Sulphur - Low Seed Replication
DYEAR=1997
DGENRE=Electronic
TTITLE0=A Debris Of Murder
TTITLE1=S - Low Seed Replication
TTITLE2=Burned Out, But Building
EXTD=
EXTT0=
EXTT1=
EXTT2=
PLAYORDER=
